# xmcd
#
# Track frame offsets:
#  150
#  19992
#  43164
#  58416
#  73579
#  99401
#  125226
#  166579
#  180945
#  202045
#
# Disc length: 3278 seconds
#
# Revision: 0
# Processed by: cddbd v1.5.1PL2 Copyright (c) Steve Scherf et al.
# Submitted via: Collectorz.com_Music_Collector 6.9
#
DISCID=8e0ccc0a
DTITLE=Van Morrison - 2000-06-10 Oslo, Frognerbadet
DYEAR=2000
DGENRE=Blues
TTITLE0=Back On Top
TTITLE1=The Healing Game
TTITLE2=Days Like This
TTITLE3=Brown Eyed Girl
TTITLE4=Vanlose Stairway
TTITLE5=Moondance
TTITLE6=Afternoon
TTITLE7=Precious Time
TTITLE8=Have I Told You Lately
TTITLE9=It's All In The Game
EXTD=
EXTT0=
EXTT1=
EXTT2=
EXTT3=
EXTT4=
EXTT5=
EXTT6=
EXTT7=
EXTT8=
EXTT9=
PLAYORDER=
